<svg width="512" height="512" viewBox="0 0 512 512" fill="none" xmlns="http://www.w3.org/2000/svg">
<rect width="512" height="512" rx="102" fill="url(#gradient0)"/>
<rect x="80" y="130" width="352" height="252" rx="40" fill="white" fill-opacity="0.15"/>
<rect x="100" y="150" width="312" height="212" rx="32" fill="white" fill-opacity="0.25"/>
<!-- Checklist lines -->
<rect x="130" y="190" width="20" height="20" rx="4" fill="white" fill-opacity="0.9"/>
<rect x="165" y="195" width="120" height="10" rx="5" fill="white" fill-opacity="0.7"/>
<rect x="130" y="230" width="20" height="20" rx="4" fill="white" fill-opacity="0.9"/>
<rect x="165" y="235" width="105" height="10" rx="5" fill="white" fill-opacity="0.7"/>
<rect x="130" y="270" width="20" height="20" rx="4" fill="white" fill-opacity="0.9"/>
<rect x="165" y="275" width="135" height="10" rx="5" fill="white" fill-opacity="0.7"/>
<rect x="130" y="310" width="20" height="20" rx="4" fill="white" fill-opacity="0.9"/>
<rect x="165" y="315" width="110" height="10" rx="5" fill="white" fill-opacity="0.7"/>
<!-- Checkmarks -->
<circle cx="140" cy="200" r="12" fill="none" stroke="white" stroke-width="4" opacity="0.8"/>
<path d="M132 200 L136 204 L144 196" stroke="white" stroke-width="4" fill="none" opacity="0.9"/>
<circle cx="140" cy="240" r="12" fill="none" stroke="white" stroke-width="4" opacity="0.8"/>
<circle cx="140" cy="280" r="12" fill="none" stroke="white" stroke-width="4" opacity="0.8"/>
<circle cx="140" cy="320" r="12" fill="none" stroke="white" stroke-width="4" opacity="0.8"/>
<!-- Decorative elements -->
<circle cx="380" cy="100" r="12" fill="white" fill-opacity="0.6"/>
<circle cx="410" cy="115" r="8" fill="white" fill-opacity="0.4"/>
<circle cx="395" cy="135" r="6" fill="white" fill-opacity="0.3"/>
<circle cx="420" cy="125" r="4" fill="white" fill-opacity="0.2"/>
<defs>
<linearGradient id="gradient0" x1="0" y1="0" x2="512" y2="512" gradientUnits="userSpaceOnUse">
<stop stop-color="#1e3c72"/>
<stop offset="0.3" stop-color="#2e5490"/>
<stop offset="0.7" stop-color="#3498db"/>
<stop offset="1" stop-color="#5dade2"/>
</linearGradient>
</defs>
</svg>
