<svg width="192" height="192" viewBox="0 0 192 192" fill="none" xmlns="http://www.w3.org/2000/svg">
<rect width="192" height="192" rx="38" fill="url(#gradient0)"/>
<rect x="30" y="50" width="132" height="92" rx="16" fill="white" fill-opacity="0.15"/>
<rect x="40" y="60" width="112" height="72" rx="12" fill="white" fill-opacity="0.25"/>
<!-- Checklist lines -->
<rect x="50" y="75" width="8" height="8" rx="2" fill="white" fill-opacity="0.9"/>
<rect x="65" y="77" width="40" height="4" rx="2" fill="white" fill-opacity="0.7"/>
<rect x="50" y="90" width="8" height="8" rx="2" fill="white" fill-opacity="0.9"/>
<rect x="65" y="92" width="35" height="4" rx="2" fill="white" fill-opacity="0.7"/>
<rect x="50" y="105" width="8" height="8" rx="2" fill="white" fill-opacity="0.9"/>
<rect x="65" y="107" width="45" height="4" rx="2" fill="white" fill-opacity="0.7"/>
<!-- Checkmarks -->
<circle cx="54" cy="79" r="6" fill="none" stroke="white" stroke-width="2" opacity="0.8"/>
<path d="M51 79 L53 81 L57 77" stroke="white" stroke-width="2" fill="none" opacity="0.9"/>
<circle cx="54" cy="94" r="6" fill="none" stroke="white" stroke-width="2" opacity="0.8"/>
<circle cx="54" cy="109" r="6" fill="none" stroke="white" stroke-width="2" opacity="0.8"/>
<!-- Decorative elements -->
<circle cx="140" cy="40" r="4" fill="white" fill-opacity="0.6"/>
<circle cx="150" cy="45" r="3" fill="white" fill-opacity="0.4"/>
<circle cx="145" cy="52" r="2" fill="white" fill-opacity="0.3"/>
<defs>
<linearGradient id="gradient0" x1="0" y1="0" x2="192" y2="192" gradientUnits="userSpaceOnUse">
<stop stop-color="#1e3c72"/>
<stop offset="0.3" stop-color="#2e5490"/>
<stop offset="0.7" stop-color="#3498db"/>
<stop offset="1" stop-color="#5dade2"/>
</linearGradient>
</defs>
</svg>
